:FULLY-SPECIFIED
:FORCE-ALL-JOINTS-BE-3DOF
:DEGREES
510
root 5.91156 16.3092 -5.20885 -166.935 77.6432 -171.865
lfemur -24.0834 -14.8507 -23.1526
ltibia 52.9592 0 0
lfoot -26.5127 -1.00244 0
ltoes 5.02297 0 0
rfemur -57.8282 5.86619 4.58398
rtibia 57.7768 0 0
rfoot 11.9688 8.25094 0
rtoes -17.8139 0 0
lowerback 8.94187 0.430096 -0.768845
upperback 1.49312 0.709083 3.17583
thorax -3.51591 0.413808 3.64791
lowerneck -8.43537 -12.6045 -4.21425
upperneck 11.87 -16.7599 2.79035
head 5.54774 -8.16393 0.237315
lclavicle 4.18045e-15 3.76991e-14 0
lhumerus -46.7906 -34.915 118.332
lradius 56.9349 0 0
lwrist 6.31095 0 0
lhand 6.0834 -0.966646 0
lfingers 7.12502 0 0
lthumb 31.4022 26.3527 0
rclavicle 4.18045e-15 3.76991e-14 0
rhumerus -12.4619 42.8531 -71.595
rradius 118.677 0 0
rwrist -21.9908 0 0
rhand 25.0031 -13.2192 0
rfingers 7.12502 0 0
rthumb 49.1075 -754.443 0
511
root 5.96672 16.2874 -5.15555 -168.043 76.4073 -172.918
lfemur -23.9879 -14.2798 -23.2887
ltibia 53.5773 0 0
lfoot -26.6901 0.0509378 0
ltoes 3.79852 0 0
rfemur -57.6022 5.62733 4.18057
rtibia 56.391 0 0
rfoot 12.48 8.1006 0
rtoes -18.128 0 0
lowerback 9.15421 0.522619 -0.718044
upperback 1.59823 0.852567 3.37607
thorax -3.53559 0.488577 3.81193
lowerneck -8.32063 -12.8774 -4.43771
upperneck 12.0836 -17.1192 2.90326
head 5.63418 -8.33662 0.268582
lclavicle 6.95746e-15 4.21423e-14 0
lhumerus -46.544 -34.937 118.443
lradius 57.0057 0 0
lwrist 6.49292 0 0
lhand 5.64779 -1.22708 0
lfingers 7.12502 0 0
lthumb 30.9876 26.1768 0
rclavicle 6.95746e-15 4.21423e-14 0
rhumerus -9.60124 41.9555 -69.1551
rradius 121.009 0 0
rwrist -27.4629 0 0
rhand 27.9175 -13.5236 0
rfingers 7.12502 0 0
rthumb 51.8253 -753.732 0
512
root 6.02095 16.2459 -5.1051 -168.389 75.1025 -173.44
lfemur -24.427 -13.746 -23.3136
ltibia 54.5704 0 0
lfoot -26.8961 0.775747 0
ltoes 2.81458 0 0
rfemur -57.237 5.16297 3.64399
rtibia 55.0534 0 0
rfoot 12.589 8.24072 0
rtoes -19.2139 0 0
lowerback 9.20644 0.53693 -0.560454
upperback 1.67831 0.906944 3.58441
thorax -3.4868 0.519386 3.93446
lowerneck -8.19915 -13.093 -4.60878
upperneck 12.1955 -17.4059 3.00841
head 5.68671 -8.47357 0.297554
lclavicle 2.98361e-15 3.25049e-14 0
lhumerus -46.3456 -34.5528 118.305
lradius 57.2157 0 0
lwrist 7.06149 0 0
lhand 4.4668 -1.61117 0
lfingers 7.12502 0 0
lthumb 29.8582 25.9722 0
rclavicle 2.98361e-15 3.25049e-14 0
rhumerus -7.53037 39.5651 -68.6169
rradius 122.507 0 0
rwrist -30.4627 0 0
rhand 26.9465 -13.2658 0
rfingers 7.12502 0 0
rthumb 50.9336 -753.918 0
513
root 6.079 16.2014 -5.05109 -168.76 73.7055 -173.998
lfemur -24.8972 -13.1745 -23.3404
ltibia 55.6337 0 0
lfoot -27.1166 1.55172 0
ltoes 1.76119 0 0
rfemur -56.846 4.66582 3.06954
rtibia 53.6215 0 0
rfoot 12.7057 8.39072 0
rtoes -20.3765 0 0
lowerback 9.26236 0.552251 -0.39174
upperback 1.76404 0.965159 3.80746
thorax -3.43456 0.552369 4.06564
lowerneck -8.06909 -13.3238 -4.79192
upperneck 12.3153 -17.7128 3.12098
head 5.74295 -8.62018 0.328572
lclavicle -1.27076e-15 2.21873e-14 0
lhumerus -46.1331 -34.1415 118.157
lradius 57.4405 0 0
lwrist 7.67019 0 0
lhand 3.20245 -2.02237 0
lfingers 7.12502 0 0
lthumb 28.649 25.7532 0
rclavicle -1.27076e-15 2.21873e-14 0
rhumerus -5.31332 37.0061 -68.0408
rradius 124.111 0 0
rwrist -33.6742 0 0
rhand 25.907 -12.9898 0
rfingers 7.12502 0 0
rthumb 49.979 -754.117 0
514
root 6.13898 16.1555 -4.99531 -169.143 72.2625 -174.576
lfemur -25.3828 -12.5842 -23.368
ltibia 56.732 0 0
lfoot -27.3444 2.35327 0
ltoes 0.67307 0 0
rfemur -56.4421 4.15229 2.47615
rtibia 52.1423 0 0
rfoot 12.8262 8.54568 0
rtoes -21.5774 0 0
lowerback 9.32011 0.568076 -0.217465
upperback 1.85261 1.02529 4.03786
thorax -3.38059 0.58644 4.20114
lowerneck -7.93474 -13.5623 -4.98111
upperneck 12.4391 -18.0299 3.23725
head 5.80105 -8.77163 0.360611
lclavicle -5.66537e-15 1.15295e-14 0
lhumerus -45.9136 -33.7166 118.005
lradius 57.6727 0 0
lwrist 8.29896 0 0
lhand 1.89641 -2.44712 0
lfingers 7.12502 0 0
lthumb 27.4001 25.5269 0
rclavicle -5.66537e-15 1.15295e-14 0
rhumerus -3.02319 34.3626 -67.4457
rradius 125.768 0 0
rwrist -36.9916 0 0
rhand 24.8331 -12.7048 0
rfingers 7.12502 0 0
rthumb 48.993 -754.322 0
515
root 6.19895 16.1096 -4.93952 -169.526 70.8195 -175.153
lfemur -25.8684 -11.9939 -23.3955
ltibia 57.8303 0 0
lfoot -27.5721 3.15483 0
ltoes -0.41505 0 0
rfemur -56.0382 3.63876 1.88276
rtibia 50.6631 0 0
rfoot 12.9468 8.70063 0
rtoes -22.7782 0 0
lowerback 9.37787 0.583902 -0.0431887
upperback 1.94117 1.08543 4.26826
thorax -3.32663 0.620511 4.33664
lowerneck -7.80039 -13.8007 -5.17029
upperneck 12.5629 -18.347 3.35353
head 5.85915 -8.92308 0.392651
lclavicle -1.006e-14 8.7171e-16 0
lhumerus -45.6942 -33.2917 117.852
lradius 57.905 0 0
lwrist 8.92773 0 0
lhand 0.590374 -2.87188 0
lfingers 7.12502 0 0
lthumb 26.1511 25.3007 0
rclavicle -1.006e-14 8.7171e-16 0
rhumerus -0.733047 31.7191 -66.8505
rradius 127.424 0 0
rwrist -40.309 0 0
rhand 23.7593 -12.4197 0
rfingers 7.12502 0 0
rthumb 48.0069 -754.528 0
516
root 6.257 16.0651 -4.88551 -169.897 69.4225 -175.711
lfemur -26.3386 -11.4224 -23.4223
ltibia 58.8936 0 0
lfoot -27.7926 3.9308 0
ltoes -1.46844 0 0
rfemur -55.6472 3.14161 1.30831
rtibia 49.2312 0 0
rfoot 13.0635 8.85063 0
rtoes -23.9408 0 0
lowerback 9.43379 0.599223 0.125525
upperback 2.0269 1.14364 4.49131
thorax -3.27439 0.653494 4.46782
lowerneck -7.67033 -14.0315 -5.35343
upperneck 12.6827 -18.6539 3.4661
head 5.91539 -9.06969 0.423669
lclavicle -1.43143e-14 -9.44594e-15 0
lhumerus -45.4817 -32.8804 117.704
lradius 58.1298 0 0
lwrist 9.53643 0 0
lhand -0.67398 -3.28308 0
lfingers 7.12502 0 0
lthumb 24.9419 25.0817 0
rclavicle -1.43143e-14 -9.44594e-15 0
rhumerus 1.484 29.1601 -66.2744
rradius 129.028 0 0
rwrist -43.5205 0 0
rhand 22.7198 -12.1437 0
rfingers 7.12502 0 0
rthumb 47.0523 -754.727 0
517
root 6.31123 16.0236 -4.83506 -170.243 68.1177 -176.233
lfemur -26.7777 -10.8886 -23.4472
ltibia 59.8867 0 0
lfoot -27.9986 4.65561 0
ltoes -2.45238 0 0
rfemur -55.282 2.67725 0.771729
rtibia 47.8936 0 0
rfoot 13.1725 8.99075 0
rtoes -25.0267 0 0
lowerback 9.48602 0.613534 0.283115
upperback 2.10698 1.19802 4.69965
thorax -3.2256 0.684303 4.59035
lowerneck -7.54885 -14.2471 -5.5245
upperneck 12.7946 -18.9406 3.57125
head 5.96792 -9.20664 0.452641
lclavicle -1.82882e-14 -1.90833e-14 0
lhumerus -45.2833 -32.4962 117.566
lradius 58.3398 0 0
lwrist 10.105 0 0
lhand -1.85497 -3.66717 0
lfingers 7.12502 0 0
lthumb 23.8125 24.8771 0
rclavicle -1.82882e-14 -1.90833e-14 0
rhumerus 3.55487 26.7697 -65.7362
rradius 130.526 0 0
rwrist -46.5203 0 0
rhand 21.7488 -11.8859 0
rfingers 7.12502 0 0
rthumb 46.1606 -754.913 0
518
root 6.37173 15.9623 -4.78305 -170.625 66.956 -176.448
lfemur -27.1419 -10.2871 -23.3759
ltibia 61.2374 0 0
lfoot -28.1297 4.75125 0
ltoes -3.01417 0 0
rfemur -54.4785 2.66259 0.14686
rtibia 47.0726 0 0
rfoot 13.3365 9.12342 0
rtoes -26.0521 0 0
lowerback 9.76101 0.636186 0.50116
upperback 2.35709 1.29172 4.93943
thorax -3.12539 0.74144 4.70678
lowerneck -7.40162 -14.4353 -5.65738
upperneck 12.8014 -19.1979 3.71154
head 5.98645 -9.32801 0.493621
lclavicle -1.59101e-14 -1.55788e-14 0
lhumerus -45.126 -32.0352 117.292
lradius 58.5985 0 0
lwrist 10.9969 0 0
lhand -3.38183 -4.05131 0
lfingers 7.12502 0 0
lthumb 22.3444 24.6394 0
rclavicle -1.59101e-14 -1.55788e-14 0
rhumerus 4.99739 24.8947 -66.5513
rradius 131.286 0 0
rwrist -46.6198 0 0
rhand 16.6558 -12.6607 0
rfingers 7.12502 0 0
rthumb 41.3185 -756.692 0
